<?xml version="1.0" encoding="utf-8"?>
<!-- Generator: Adobe Illustrator 24.0.1, SVG Export Plug-In . SVG Version: 6.00 Build 0)  -->
<svg version="1.1" id="Layer_1" xmlns="http://www.w3.org/2000/svg" xmlns:xlink="http://www.w3.org/1999/xlink" x="0px" y="0px"
	 viewBox="0 0 283.5 114" style="enable-background:new 0 0 283.5 114;" xml:space="preserve">
<style type="text/css">
	.st0{fill:#353B67;}
	.st1{fill:#FBAB18;}
</style>
<g>
	<path class="st0" d="M149.2,5.2c13.4,1.3,26.2,6.5,37,15c10.9,8.5,19.3,19.9,24.3,33l4.6-1.8c-5.3-13.9-14.3-26.1-25.9-35.1
		c-11.6-9.1-25.3-14.6-39.6-16C115.3-3,82.1,18,68.8,51.4l4.6,1.8C85.8,21.8,117,2.1,149.2,5.2z"/>
	<path class="st0" d="M183.2,64.7l4.6-1.8c-3.3-8.7-8.9-16.3-16.2-21.9c-7.3-5.7-15.8-9.1-24.8-10c-21.5-2.1-42.3,11-50.6,31.9
		l4.6,1.8c7.5-18.9,26.2-30.7,45.6-28.9c8,0.8,15.7,3.9,22.2,9C175.1,49.9,180.1,56.8,183.2,64.7z"/>
	<rect x="130.6" y="65" class="st1" width="22.8" height="22.8"/>
	<path class="st0" d="M212,108.7l-0.2,0.4c-0.9,1.7-1.7,3.2-2.7,4.8h74.3v-5.2H212z"/>
	<path class="st0" d="M116.8,108.7c2.9,2.1,6.1,3.9,9.5,5.2h7.8H149v0h8.2c3.4-1.3,6.6-3.1,9.6-5.2l-17.8,0H116.8z"/>
	<path class="st0" d="M187.4,108.7h-7.5v0H175c-0.7,0.6-1.5,1.3-2.3,2c-1.4,1.2-2.8,2.2-4.3,3.2h11.5v0h7.5v0h15.5
		c0.3-0.5,0.7-1,1-1.6c0.8-1.2,1.5-2.4,2.2-3.6L187.4,108.7L187.4,108.7z"/>
	<path class="st0" d="M108.7,108.7h-2h0h-4H77.7c0.5,0.8,0.9,1.7,1.5,2.6c0.5,0.9,1.1,1.8,1.6,2.6h25.8h8.5
		c-1.1-0.8-2.3-1.6-3.5-2.6C110.5,110.5,109.5,109.6,108.7,108.7z"/>
	<path class="st0" d="M71.8,108.7H0v5.2h74.7c-0.5-0.8-1-1.7-1.5-2.6C72.7,110.5,72.3,109.6,71.8,108.7z"/>
</g>
</svg>
